<svg xmlns="http://www.w3.org/2000/svg" x="0px" y="0px"
     width="24" height="24"
     viewBox="0 0 172 172"
     style=" fill:#000000;"><g fill="none" fill-rule="nonzero" stroke="none" stroke-width="1" stroke-linecap="butt" stroke-linejoin="miter" stroke-miterlimit="10" stroke-dasharray="" stroke-dashoffset="0" font-family="none" font-weight="none" font-size="none" text-anchor="none" style="mix-blend-mode: normal"><path d="M0,172v-172h172v172z" fill="none"></path><g id="original-icon" fill="#e74c3c"><path d="M86,17.2c-37.9948,0 -68.8,30.8052 -68.8,68.8c0,37.9948 30.8052,68.8 68.8,68.8c37.9948,0 68.8,-30.8052 68.8,-68.8c0,-37.9948 -30.8052,-68.8 -68.8,-68.8zM112.9868,104.87987c2.24173,2.24173 2.24173,5.8652 0,8.10693c-1.118,1.118 -2.58573,1.67987 -4.05347,1.67987c-1.46773,0 -2.93547,-0.56187 -4.05347,-1.67987l-18.87987,-18.87987l-18.87987,18.87987c-1.118,1.118 -2.58573,1.67987 -4.05347,1.67987c-1.46773,0 -2.93547,-0.56187 -4.05347,-1.67987c-2.24173,-2.24173 -2.24173,-5.8652 0,-8.10693l18.87987,-18.87987l-18.87987,-18.87987c-2.24173,-2.24173 -2.24173,-5.8652 0,-8.10693c2.24173,-2.24173 5.8652,-2.24173 8.10693,0l18.87987,18.87987l18.87987,-18.87987c2.24173,-2.24173 5.8652,-2.24173 8.10693,0c2.24173,2.24173 2.24173,5.8652 0,8.10693l-18.87987,18.87987z"></path></g></g></svg>